<svg width="13" height="9" viewBox="0 0 13 9" fill="none" xmlns="http://www.w3.org/2000/svg">
<path d="M5.23757 0.242153C5.4045 0.403589 5.48463 0.598656 5.47795 0.827356C5.47127 1.05606 5.38419 1.25112 5.2167 1.41256L2.85876 3.69283L12.1653 3.69283C12.4018 3.69283 12.6002 3.77032 12.7604 3.92529C12.9207 4.08027 13.0006 4.27184 13 4.5C13 4.7287 12.9199 4.92054 12.7596 5.07552C12.5994 5.23049 12.4013 5.30771 12.1653 5.30718L2.85876 5.30717L5.23757 7.60762C5.4045 7.76906 5.48797 7.9609 5.48797 8.18314C5.48797 8.40538 5.4045 8.59695 5.23757 8.75785C5.07063 8.91928 4.87226 9 4.64245 9C4.41263 9 4.21454 8.91928 4.04816 8.75785L0.229548 5.06502C0.14608 4.9843 0.0868181 4.89686 0.051762 4.80269C0.0167059 4.70852 -0.000544164 4.60762 1.18375e-05 4.5C1.18469e-05 4.39238 0.0175413 4.29148 0.0525975 4.19731C0.0876536 4.10314 0.146637 4.01569 0.229548 3.93498L4.06903 0.221975C4.22205 0.0739929 4.41319 2.02992e-07 4.64245 2.23034e-07C4.8717 2.43076e-07 5.07008 0.0807193 5.23757 0.242153Z" fill="#00ABC5"/>
</svg>
