<svg width="14" height="10" viewBox="0 0 14 10" fill="none" xmlns="http://www.w3.org/2000/svg">
<path d="M5.64046 0.269059C5.82023 0.448432 5.90652 0.665174 5.89933 0.919284C5.89214 1.17339 5.79836 1.39014 5.61799 1.56951L3.07866 4.10314L13.1011 4.10314C13.3558 4.10314 13.5694 4.18924 13.742 4.36144C13.9146 4.53363 14.0006 4.74649 14 5C14 5.25411 13.9137 5.46727 13.7411 5.63946C13.5685 5.81166 13.3552 5.89746 13.1011 5.89686L3.07866 5.89686L5.64046 8.45291C5.82023 8.63229 5.91012 8.84544 5.91012 9.09238C5.91012 9.33931 5.82023 9.55217 5.64046 9.73094C5.46068 9.91031 5.24705 10 4.99956 10C4.75207 10 4.53873 9.91031 4.35956 9.73094L0.247205 5.6278C0.157319 5.53812 0.0934967 5.44096 0.0557436 5.33632C0.0179915 5.23169 -0.000586083 5.11958 1.37886e-05 5C1.3799e-05 4.88042 0.0188918 4.76831 0.056644 4.66368C0.0943971 4.55904 0.157918 4.46188 0.247205 4.3722L4.38203 0.246638C4.54683 0.0822135 4.75267 1.45247e-07 4.99956 1.66831e-07C5.24645 1.88415e-07 5.46008 0.0896876 5.64046 0.269059Z" fill="white"/>
</svg>
