<svg width="36" height="36" viewBox="0 0 36 36" fill="none" xmlns="http://www.w3.org/2000/svg">
<circle cx="18" cy="18" r="18" fill="white"/>
<path d="M18.3321 26.0526H11.8947C11.3922 26.0526 10.9103 25.853 10.555 25.4977C10.1996 25.1423 10 24.6604 10 24.1579V12.7895C10 12.287 10.1996 11.805 10.555 11.4497C10.9103 11.0944 11.3922 10.8947 11.8947 10.8947H23.2632C23.7657 10.8947 24.2476 11.0944 24.6029 11.4497C24.9583 11.805 25.1579 12.287 25.1579 12.7895V16.5789" stroke="#00ABC5" stroke-width="1.7" stroke-linecap="round" stroke-linejoin="round"/>
<path d="M21.3684 9V12.7895M13.7895 9V12.7895M10 16.5789H25.1579M20.4211 23.2105C20.4211 24.2156 20.8203 25.1794 21.531 25.8901C22.2416 26.6008 23.2055 27 24.2105 27C25.2156 27 26.1794 26.6008 26.8901 25.8901C27.6008 25.1794 28 24.2156 28 23.2105C28 22.2055 27.6008 21.2416 26.8901 20.531C26.1794 19.8203 25.2156 19.4211 24.2105 19.4211C23.2055 19.4211 22.2416 19.8203 21.531 20.531C20.8203 21.2416 20.4211 22.2055 20.4211 23.2105Z" stroke="#00ABC5" stroke-width="1.7" stroke-linecap="round" stroke-linejoin="round"/>
<path d="M24.2104 21.7857V23.2105L25.1578 24.1579" stroke="#00ABC5" stroke-width="1.7" stroke-linecap="round" stroke-linejoin="round"/>
</svg>
