<svg width="23" height="29" viewBox="0 0 23 29" fill="none" xmlns="http://www.w3.org/2000/svg">
<path d="M21.5625 7.25H17.25V5.8C17.25 4.26174 16.6442 2.78649 15.5659 1.69878C14.4875 0.61107 13.025 0 11.5 0C9.97501 0 8.51247 0.61107 7.43414 1.69878C6.3558 2.78649 5.75 4.26174 5.75 5.8V7.25H1.4375C1.05625 7.25 0.690618 7.40277 0.421034 7.6747C0.151451 7.94662 0 8.31544 0 8.7V24.65C0 25.8037 0.454352 26.9101 1.2631 27.7259C2.07185 28.5417 3.16875 29 4.3125 29H18.6875C19.8312 29 20.9281 28.5417 21.7369 27.7259C22.5456 26.9101 23 25.8037 23 24.65V8.7C23 8.31544 22.8486 7.94662 22.579 7.6747C22.3094 7.40277 21.9437 7.25 21.5625 7.25ZM8.625 5.8C8.625 5.03087 8.9279 4.29325 9.46707 3.74939C10.0062 3.20553 10.7375 2.9 11.5 2.9C12.2625 2.9 12.9938 3.20553 13.5329 3.74939C14.0721 4.29325 14.375 5.03087 14.375 5.8V7.25H8.625V5.8ZM20.125 24.65C20.125 25.0346 19.9736 25.4034 19.704 25.6753C19.4344 25.9472 19.0687 26.1 18.6875 26.1H4.3125C3.93125 26.1 3.56562 25.9472 3.29603 25.6753C3.02645 25.4034 2.875 25.0346 2.875 24.65V10.15H5.75V11.6C5.75 11.9846 5.90145 12.3534 6.17103 12.6253C6.44062 12.8972 6.80625 13.05 7.1875 13.05C7.56875 13.05 7.93438 12.8972 8.20397 12.6253C8.47355 12.3534 8.625 11.9846 8.625 11.6V10.15H14.375V11.6C14.375 11.9846 14.5265 12.3534 14.796 12.6253C15.0656 12.8972 15.4313 13.05 15.8125 13.05C16.1937 13.05 16.5594 12.8972 16.829 12.6253C17.0985 12.3534 17.25 11.9846 17.25 11.6V10.15H20.125V24.65Z" fill="white"/>
</svg>
