<svg width="19" height="14" viewBox="0 0 19 14" fill="none" xmlns="http://www.w3.org/2000/svg">
<path d="M1.05556 14C0.756482 14 0.505963 13.888 0.304 13.664C0.101333 13.4408 0 13.1639 0 12.8333C0 12.5028 0.101333 12.2259 0.304 12.0027C0.505963 11.7787 0.756482 11.6667 1.05556 11.6667H17.9444C18.2435 11.6667 18.494 11.7787 18.696 12.0027C18.8987 12.2259 19 12.5028 19 12.8333C19 13.1639 18.8987 13.4408 18.696 13.664C18.494 13.888 18.2435 14 17.9444 14H1.05556ZM1.05556 8.16667C0.756482 8.16667 0.505963 8.05467 0.304 7.83067C0.101333 7.60744 0 7.33056 0 7C0 6.66944 0.101333 6.39217 0.304 6.16817C0.505963 5.94494 0.756482 5.83333 1.05556 5.83333H17.9444C18.2435 5.83333 18.494 5.94494 18.696 6.16817C18.8987 6.39217 19 6.66944 19 7C19 7.33056 18.8987 7.60744 18.696 7.83067C18.494 8.05467 18.2435 8.16667 17.9444 8.16667H1.05556ZM1.05556 2.33333C0.756482 2.33333 0.505963 2.22172 0.304 1.9985C0.101333 1.7745 0 1.49722 0 1.16667C0 0.836111 0.101333 0.558834 0.304 0.334834C0.505963 0.111611 0.756482 0 1.05556 0H17.9444C18.2435 0 18.494 0.111611 18.696 0.334834C18.8987 0.558834 19 0.836111 19 1.16667C19 1.49722 18.8987 1.7745 18.696 1.9985C18.494 2.22172 18.2435 2.33333 17.9444 2.33333H1.05556Z" fill="#555555"/>
</svg>
