<svg width="12" height="12" viewBox="0 0 12 12" fill="none" xmlns="http://www.w3.org/2000/svg">
<path d="M6 6.84L7.74 8.58C7.85 8.69 7.99 8.745 8.16 8.745C8.33 8.745 8.47 8.69 8.58 8.58C8.69 8.47 8.745 8.33 8.745 8.16C8.745 7.99 8.69 7.85 8.58 7.74L6.84 6L8.58 4.26C8.69 4.15 8.745 4.01 8.745 3.84C8.745 3.67 8.69 3.53 8.58 3.42C8.47 3.31 8.33 3.255 8.16 3.255C7.99 3.255 7.85 3.31 7.74 3.42L6 5.16L4.26 3.42C4.15 3.31 4.01 3.255 3.84 3.255C3.67 3.255 3.53 3.31 3.42 3.42C3.31 3.53 3.255 3.67 3.255 3.84C3.255 4.01 3.31 4.15 3.42 4.26L5.16 6L3.42 7.74C3.31 7.85 3.255 7.99 3.255 8.16C3.255 8.33 3.31 8.47 3.42 8.58C3.53 8.69 3.67 8.745 3.84 8.745C4.01 8.745 4.15 8.69 4.26 8.58L6 6.84ZM6 12C5.17 12 4.39 11.8424 3.66 11.5272C2.93 11.212 2.295 10.7846 1.755 10.245C1.215 9.705 0.7876 9.07 0.4728 8.34C0.158 7.61 0.0004 6.83 0 6C0 5.17 0.1576 4.39 0.4728 3.66C0.788 2.93 1.2154 2.295 1.755 1.755C2.295 1.215 2.93 0.7876 3.66 0.4728C4.39 0.158 5.17 0.0004 6 0C6.83 0 7.61 0.1576 8.34 0.4728C9.07 0.788 9.705 1.2154 10.245 1.755C10.785 2.295 11.2126 2.93 11.5278 3.66C11.843 4.39 12.0004 5.17 12 6C12 6.83 11.8424 7.61 11.5272 8.34C11.212 9.07 10.7846 9.705 10.245 10.245C9.705 10.785 9.07 11.2126 8.34 11.5278C7.61 11.843 6.83 12.0004 6 12ZM6 10.8C7.34 10.8 8.475 10.335 9.405 9.405C10.335 8.475 10.8 7.34 10.8 6C10.8 4.66 10.335 3.525 9.405 2.595C8.475 1.665 7.34 1.2 6 1.2C4.66 1.2 3.525 1.665 2.595 2.595C1.665 3.525 1.2 4.66 1.2 6C1.2 7.34 1.665 8.475 2.595 9.405C3.525 10.335 4.66 10.8 6 10.8Z" fill="white"/>
</svg>
