<svg width="13" height="13" viewBox="0 0 13 13" fill="none" xmlns="http://www.w3.org/2000/svg">
<path d="M6.5 12C7.22241 12.0009 7.93788 11.8591 8.60529 11.5826C9.2727 11.3062 9.8789 10.9005 10.389 10.389C10.9005 9.8789 11.3062 9.2727 11.5826 8.60529C11.8591 7.93788 12.0009 7.22241 12 6.5C12.0009 5.7776 11.8591 5.06213 11.5826 4.39472C11.3062 3.72731 10.9005 3.12111 10.389 2.61095C9.8789 2.09946 9.2727 1.69383 8.60529 1.41737C7.93788 1.14091 7.22241 0.999069 6.5 1C5.7776 0.999084 5.06213 1.14093 4.39472 1.41739C3.72731 1.69385 3.12111 2.09947 2.61095 2.61095C2.09947 3.12111 1.69385 3.72731 1.41739 4.39472C1.14093 5.06213 0.999084 5.7776 1 6.5C0.999069 7.22241 1.14091 7.93788 1.41737 8.60529C1.69383 9.2727 2.09946 9.8789 2.61095 10.389C3.12111 10.9005 3.72731 11.3062 4.39472 11.5826C5.06213 11.8591 5.7776 12.0009 6.5 12Z" stroke="white" stroke-width="1.2" stroke-linejoin="round"/>
<path d="M4.29993 6.49985L5.94993 8.14985L9.24992 4.84985" stroke="white" stroke-width="1.2" stroke-linecap="round" stroke-linejoin="round"/>
</svg>
