<svg width="8" height="13" viewBox="0 0 8 13" fill="none" xmlns="http://www.w3.org/2000/svg">
<path d="M0.354797 11.0078L5.06888 6.49394L0.354797 1.98007C0.242312 1.87237 0.153086 1.7445 0.0922094 1.60378C0.0313333 1.46305 1.18522e-09 1.31222 0 1.1599C-1.18521e-09 1.00758 0.0313333 0.856752 0.0922094 0.716026C0.153085 0.575301 0.242312 0.447434 0.354797 0.339727C0.467281 0.232021 0.600819 0.146583 0.747787 0.0882924C0.894755 0.030002 1.05227 -1.13487e-09 1.21135 0C1.37043 1.13488e-09 1.52795 0.030002 1.67491 0.0882924C1.82188 0.146583 1.95542 0.232021 2.06791 0.339727L7.64462 5.67958C8.11846 6.13329 8.11846 6.86622 7.64462 7.31993L2.06791 12.6598C1.9555 12.7676 1.82199 12.8532 1.67501 12.9116C1.52803 12.97 1.37047 13 1.21135 13C1.05223 13 0.894668 12.97 0.747689 12.9116C0.60071 12.8532 0.467198 12.7676 0.354797 12.6598C-0.106892 12.2061 -0.119042 11.4615 0.354797 11.0078Z" fill="#767676"/>
</svg>
