<svg width="14" height="15" viewBox="0 0 14 15" fill="none" xmlns="http://www.w3.org/2000/svg">
<path d="M11.1111 10.4005C12.0103 10.7826 12.5556 11.2838 12.5556 11.8334C12.5556 13.0301 9.96856 14.0001 6.77778 14.0001C3.587 14.0001 1 13.0301 1 11.8334C1 11.2845 1.54528 10.7818 2.44445 10.4005" stroke="#00ABC5" stroke-width="1.5" stroke-linecap="round" stroke-linejoin="round"/>
<path d="M10.389 4.93178C10.389 7.16561 6.77786 11.1111 6.77786 11.1111C6.77786 11.1111 3.16675 7.16561 3.16675 4.93178C3.16675 2.69867 4.7838 1 6.77786 1C8.77192 1 10.389 2.69867 10.389 4.93178Z" stroke="#00ABC5" stroke-width="1.5" stroke-linecap="round" stroke-linejoin="round"/>
<path d="M6.77764 5.33336C7.17652 5.33336 7.49987 5.01001 7.49987 4.61114C7.49987 4.21227 7.17652 3.88892 6.77764 3.88892C6.37877 3.88892 6.05542 4.21227 6.05542 4.61114C6.05542 5.01001 6.37877 5.33336 6.77764 5.33336Z" stroke="#00ABC5" stroke-width="1.5" stroke-linecap="round" stroke-linejoin="round"/>
</svg>
