<svg width="121" height="124" viewBox="0 0 121 124" fill="none" xmlns="http://www.w3.org/2000/svg">
<path d="M9.97159 109.091V120H8.69318L2.74858 111.435H2.64205V120H1.32102V109.091H2.59943L8.56534 117.678H8.67188V109.091H9.97159ZM15.7684 120.17C15.0297 120.17 14.3817 119.995 13.8241 119.643C13.2702 119.292 12.8369 118.8 12.5244 118.168C12.2155 117.536 12.061 116.797 12.061 115.952C12.061 115.099 12.2155 114.355 12.5244 113.72C12.8369 113.084 13.2702 112.591 13.8241 112.239C14.3817 111.887 15.0297 111.712 15.7684 111.712C16.507 111.712 17.1533 111.887 17.7073 112.239C18.2648 112.591 18.6981 113.084 19.007 113.72C19.3195 114.355 19.4758 115.099 19.4758 115.952C19.4758 116.797 19.3195 117.536 19.007 118.168C18.6981 118.8 18.2648 119.292 17.7073 119.643C17.1533 119.995 16.507 120.17 15.7684 120.17ZM15.7684 119.041C16.3295 119.041 16.7911 118.897 17.1533 118.61C17.5155 118.322 17.7836 117.944 17.9577 117.475C18.1317 117.006 18.2187 116.499 18.2187 115.952C18.2187 115.405 18.1317 114.895 17.9577 114.423C17.7836 113.951 17.5155 113.569 17.1533 113.278C16.7911 112.987 16.3295 112.841 15.7684 112.841C15.2073 112.841 14.7456 112.987 14.3834 113.278C14.0212 113.569 13.7531 113.951 13.5791 114.423C13.4051 114.895 13.3181 115.405 13.3181 115.952C13.3181 116.499 13.4051 117.006 13.5791 117.475C13.7531 117.944 14.0212 118.322 14.3834 118.61C14.7456 118.897 15.2073 119.041 15.7684 119.041ZM25.6135 120V111.818H26.8706V120H25.6135ZM26.2527 110.455C26.0076 110.455 25.7963 110.371 25.6188 110.204C25.4448 110.037 25.3578 109.837 25.3578 109.602C25.3578 109.368 25.4448 109.167 25.6188 109C25.7963 108.833 26.0076 108.75 26.2527 108.75C26.4977 108.75 26.7072 108.833 26.8812 109C27.0588 109.167 27.1475 109.368 27.1475 109.602C27.1475 109.837 27.0588 110.037 26.8812 110.204C26.7072 110.371 26.4977 110.455 26.2527 110.455ZM32.7313 111.818V112.884H28.4912V111.818H32.7313ZM29.727 109.858H30.9841V117.656C30.9841 118.011 31.0356 118.278 31.1386 118.455C31.2451 118.629 31.3801 118.746 31.5434 118.807C31.7103 118.864 31.8861 118.892 32.0708 118.892C32.2093 118.892 32.3229 118.885 32.4117 118.871C32.5004 118.853 32.5715 118.839 32.6247 118.828L32.8804 119.957C32.7952 119.989 32.6762 120.021 32.5235 120.053C32.3708 120.089 32.1773 120.107 31.9429 120.107C31.5878 120.107 31.2398 120.03 30.8989 119.877C30.5615 119.725 30.281 119.492 30.0573 119.18C29.8371 118.867 29.727 118.473 29.727 117.997V109.858ZM37.9648 120.17C37.1764 120.17 36.4964 119.996 35.9246 119.648C35.3564 119.297 34.9179 118.807 34.6089 118.178C34.3035 117.546 34.1508 116.811 34.1508 115.973C34.1508 115.135 34.3035 114.396 34.6089 113.757C34.9179 113.114 35.3476 112.614 35.898 112.255C36.452 111.893 37.0983 111.712 37.8369 111.712C38.2631 111.712 38.6839 111.783 39.0993 111.925C39.5148 112.067 39.893 112.298 40.2339 112.617C40.5748 112.933 40.8465 113.352 41.0489 113.874C41.2513 114.396 41.3525 115.039 41.3525 115.803V116.335H35.0457V115.249H40.0741C40.0741 114.787 39.9818 114.375 39.7971 114.013C39.616 113.651 39.3568 113.365 39.0194 113.155C38.6856 112.946 38.2915 112.841 37.8369 112.841C37.3362 112.841 36.903 112.965 36.5372 113.214C36.175 113.459 35.8962 113.778 35.7009 114.173C35.5056 114.567 35.4079 114.989 35.4079 115.44V116.165C35.4079 116.783 35.5145 117.306 35.7275 117.736C35.9442 118.162 36.2442 118.487 36.6278 118.711C37.0113 118.931 37.4569 119.041 37.9648 119.041C38.295 119.041 38.5933 118.995 38.8596 118.903C39.1295 118.807 39.3621 118.665 39.5574 118.477C39.7528 118.285 39.9037 118.047 40.0102 117.763L41.2247 118.104C41.0969 118.516 40.882 118.878 40.5802 119.19C40.2783 119.499 39.9055 119.741 39.4616 119.915C39.0177 120.085 38.5187 120.17 37.9648 120.17ZM43.2648 120V111.818H44.4793V113.097H44.5858C44.7563 112.66 45.0315 112.321 45.4115 112.079C45.7915 111.834 46.2478 111.712 46.7805 111.712C47.3202 111.712 47.7694 111.834 48.1281 112.079C48.4903 112.321 48.7726 112.66 48.9751 113.097H49.0603C49.2698 112.674 49.5841 112.338 50.0031 112.09C50.4221 111.838 50.9246 111.712 51.5106 111.712C52.2421 111.712 52.8405 111.941 53.3057 112.399C53.7709 112.853 54.0035 113.562 54.0035 114.524V120H52.7464V114.524C52.7464 113.92 52.5812 113.489 52.251 113.23C51.9207 112.971 51.5319 112.841 51.0844 112.841C50.5091 112.841 50.0635 113.015 49.7474 113.363C49.4314 113.707 49.2733 114.144 49.2733 114.673V120H47.9949V114.396C47.9949 113.931 47.844 113.556 47.5422 113.272C47.2403 112.985 46.8515 112.841 46.3756 112.841C46.0489 112.841 45.7435 112.928 45.4594 113.102C45.1789 113.276 44.9516 113.517 44.7776 113.826C44.6072 114.132 44.5219 114.485 44.5219 114.886V120H43.2648ZM66.3161 113.651L65.1869 113.97C65.1159 113.782 65.0111 113.599 64.8726 113.422C64.7377 113.24 64.553 113.091 64.3186 112.974C64.0843 112.857 63.7842 112.798 63.4184 112.798C62.9177 112.798 62.5004 112.914 62.1666 113.145C61.8364 113.372 61.6713 113.661 61.6713 114.013C61.6713 114.325 61.7849 114.572 62.0122 114.753C62.2394 114.934 62.5945 115.085 63.0775 115.206L64.292 115.504C65.0235 115.682 65.5686 115.953 65.9273 116.319C66.286 116.681 66.4653 117.148 66.4653 117.72C66.4653 118.189 66.3303 118.608 66.0605 118.977C65.7941 119.347 65.4213 119.638 64.9419 119.851C64.4624 120.064 63.9049 120.17 63.2693 120.17C62.4347 120.17 61.7441 119.989 61.1972 119.627C60.6503 119.265 60.3041 118.736 60.1585 118.04L61.3517 117.741C61.4653 118.182 61.6801 118.512 61.9962 118.732C62.3158 118.952 62.733 119.062 63.248 119.062C63.8339 119.062 64.2991 118.938 64.6436 118.69C64.9916 118.437 65.1656 118.136 65.1656 117.784C65.1656 117.5 65.0661 117.262 64.8673 117.07C64.6684 116.875 64.363 116.729 63.9511 116.634L62.5874 116.314C61.8382 116.136 61.2877 115.861 60.9362 115.488C60.5882 115.112 60.4142 114.641 60.4142 114.077C60.4142 113.615 60.5438 113.207 60.803 112.852C61.0658 112.496 61.4227 112.218 61.8737 112.015C62.3282 111.813 62.8431 111.712 63.4184 111.712C64.2281 111.712 64.8637 111.889 65.3254 112.244C65.7906 112.599 66.1208 113.068 66.3161 113.651ZM71.788 120.17C70.9996 120.17 70.3196 119.996 69.7479 119.648C69.1797 119.297 68.7411 118.807 68.4322 118.178C68.1268 117.546 67.9741 116.811 67.9741 115.973C67.9741 115.135 68.1268 114.396 68.4322 113.757C68.7411 113.114 69.1708 112.614 69.7212 112.255C70.2752 111.893 70.9215 111.712 71.6602 111.712C72.0863 111.712 72.5071 111.783 72.9226 111.925C73.3381 112.067 73.7163 112.298 74.0572 112.617C74.3981 112.933 74.6697 113.352 74.8722 113.874C75.0746 114.396 75.1758 115.039 75.1758 115.803V116.335H68.869V115.249H73.8974C73.8974 114.787 73.805 114.375 73.6204 114.013C73.4393 113.651 73.18 113.365 72.8427 113.155C72.5089 112.946 72.1147 112.841 71.6602 112.841C71.1594 112.841 70.7262 112.965 70.3604 113.214C69.9982 113.459 69.7195 113.778 69.5241 114.173C69.3288 114.567 69.2312 114.989 69.2312 115.44V116.165C69.2312 116.783 69.3377 117.306 69.5508 117.736C69.7674 118.162 70.0675 118.487 70.451 118.711C70.8345 118.931 71.2802 119.041 71.788 119.041C72.1183 119.041 72.4165 118.995 72.6829 118.903C72.9528 118.807 73.1854 118.665 73.3807 118.477C73.576 118.285 73.7269 118.047 73.8335 117.763L75.0479 118.104C74.9201 118.516 74.7053 118.878 74.4034 119.19C74.1016 119.499 73.7287 119.741 73.2848 119.915C72.8409 120.085 72.342 120.17 71.788 120.17ZM78.3452 109.091V120H77.0881V109.091H78.3452ZM84.078 120.17C83.2897 120.17 82.6096 119.996 82.0379 119.648C81.4697 119.297 81.0312 118.807 80.7222 118.178C80.4168 117.546 80.2641 116.811 80.2641 115.973C80.2641 115.135 80.4168 114.396 80.7222 113.757C81.0312 113.114 81.4608 112.614 82.0113 112.255C82.5653 111.893 83.2116 111.712 83.9502 111.712C84.3763 111.712 84.7971 111.783 85.2126 111.925C85.6281 112.067 86.0063 112.298 86.3472 112.617C86.6881 112.933 86.9598 113.352 87.1622 113.874C87.3646 114.396 87.4658 115.039 87.4658 115.803V116.335H81.159V115.249H86.1874C86.1874 114.787 86.0951 114.375 85.9104 114.013C85.7293 113.651 85.4701 113.365 85.1327 113.155C84.7989 112.946 84.4047 112.841 83.9502 112.841C83.4495 112.841 83.0162 112.965 82.6505 113.214C82.2883 113.459 82.0095 113.778 81.8142 114.173C81.6189 114.567 81.5212 114.989 81.5212 115.44V116.165C81.5212 116.783 81.6278 117.306 81.8408 117.736C82.0574 118.162 82.3575 118.487 82.741 118.711C83.1246 118.931 83.5702 119.041 84.078 119.041C84.4083 119.041 84.7066 118.995 84.9729 118.903C85.2428 118.807 85.4754 118.665 85.6707 118.477C85.866 118.285 86.017 118.047 86.1235 117.763L87.338 118.104C87.2101 118.516 86.9953 118.878 86.6934 119.19C86.3916 119.499 86.0187 119.741 85.5748 119.915C85.1309 120.085 84.632 120.17 84.078 120.17ZM92.702 120.17C91.9349 120.17 91.2744 119.989 90.7204 119.627C90.1665 119.265 89.7403 118.766 89.442 118.13C89.1437 117.495 88.9946 116.768 88.9946 115.952C88.9946 115.121 89.1473 114.387 89.4527 113.752C89.7616 113.113 90.1913 112.614 90.7417 112.255C91.2957 111.893 91.942 111.712 92.6807 111.712C93.2559 111.712 93.7744 111.818 94.2361 112.031C94.6977 112.244 95.0759 112.543 95.3707 112.926C95.6654 113.31 95.8483 113.757 95.9193 114.268H94.6622C94.5663 113.896 94.3532 113.565 94.023 113.278C93.6963 112.987 93.2559 112.841 92.702 112.841C92.2119 112.841 91.7822 112.969 91.4129 113.224C91.0471 113.477 90.7613 113.833 90.5553 114.295C90.3529 114.753 90.2517 115.291 90.2517 115.909C90.2517 116.541 90.3511 117.092 90.55 117.56C90.7524 118.029 91.0365 118.393 91.4023 118.652C91.7716 118.912 92.2048 119.041 92.702 119.041C93.0287 119.041 93.3252 118.984 93.5915 118.871C93.8579 118.757 94.0834 118.594 94.268 118.381C94.4527 118.168 94.5841 117.912 94.6622 117.614H95.9193C95.8483 118.097 95.6725 118.532 95.392 118.919C95.115 119.302 94.7474 119.608 94.2893 119.835C93.8348 120.059 93.3057 120.17 92.702 120.17ZM101.315 111.818V112.884H97.0752V111.818H101.315ZM98.311 109.858H99.5681V117.656C99.5681 118.011 99.6196 118.278 99.7226 118.455C99.8291 118.629 99.964 118.746 100.127 118.807C100.294 118.864 100.47 118.892 100.655 118.892C100.793 118.892 100.907 118.885 100.996 118.871C101.084 118.853 101.155 118.839 101.209 118.828L101.464 119.957C101.379 119.989 101.26 120.021 101.108 120.053C100.955 120.089 100.761 120.107 100.527 120.107C100.172 120.107 99.8238 120.03 99.4829 119.877C99.1455 119.725 98.865 119.492 98.6412 119.18C98.4211 118.867 98.311 118.473 98.311 117.997V109.858ZM106.549 120.17C105.76 120.17 105.08 119.996 104.509 119.648C103.94 119.297 103.502 118.807 103.193 118.178C102.888 117.546 102.735 116.811 102.735 115.973C102.735 115.135 102.888 114.396 103.193 113.757C103.502 113.114 103.932 112.614 104.482 112.255C105.036 111.893 105.682 111.712 106.421 111.712C106.847 111.712 107.268 111.783 107.683 111.925C108.099 112.067 108.477 112.298 108.818 112.617C109.159 112.933 109.43 113.352 109.633 113.874C109.835 114.396 109.937 115.039 109.937 115.803V116.335H103.63V115.249H108.658C108.658 114.787 108.566 114.375 108.381 114.013C108.2 113.651 107.941 113.365 107.603 113.155C107.27 112.946 106.875 112.841 106.421 112.841C105.92 112.841 105.487 112.965 105.121 113.214C104.759 113.459 104.48 113.778 104.285 114.173C104.09 114.567 103.992 114.989 103.992 115.44V116.165C103.992 116.783 104.098 117.306 104.312 117.736C104.528 118.162 104.828 118.487 105.212 118.711C105.595 118.931 106.041 119.041 106.549 119.041C106.879 119.041 107.177 118.995 107.444 118.903C107.714 118.807 107.946 118.665 108.141 118.477C108.337 118.285 108.488 118.047 108.594 117.763L109.809 118.104C109.681 118.516 109.466 118.878 109.164 119.19C108.862 119.499 108.489 119.741 108.046 119.915C107.602 120.085 107.103 120.17 106.549 120.17ZM114.938 120.17C114.256 120.17 113.655 119.998 113.133 119.654C112.611 119.306 112.202 118.816 111.907 118.184C111.613 117.548 111.465 116.797 111.465 115.93C111.465 115.071 111.613 114.325 111.907 113.693C112.202 113.061 112.612 112.573 113.138 112.228C113.663 111.884 114.271 111.712 114.96 111.712C115.492 111.712 115.913 111.8 116.222 111.978C116.535 112.152 116.772 112.351 116.936 112.575C117.103 112.795 117.232 112.976 117.325 113.118H117.431V109.091H118.688V120H117.474V118.743H117.325C117.232 118.892 117.101 119.08 116.93 119.308C116.76 119.531 116.517 119.732 116.201 119.909C115.885 120.083 115.464 120.17 114.938 120.17ZM115.109 119.041C115.613 119.041 116.039 118.91 116.387 118.647C116.735 118.381 117 118.013 117.181 117.544C117.362 117.072 117.453 116.527 117.453 115.909C117.453 115.298 117.364 114.764 117.186 114.306C117.009 113.844 116.746 113.485 116.398 113.23C116.05 112.971 115.62 112.841 115.109 112.841C114.576 112.841 114.132 112.978 113.777 113.251C113.426 113.521 113.161 113.888 112.983 114.354C112.809 114.815 112.722 115.334 112.722 115.909C112.722 116.491 112.811 117.021 112.989 117.496C113.17 117.969 113.436 118.345 113.788 118.626C114.143 118.903 114.583 119.041 115.109 119.041Z" fill="#767676"/>
<circle cx="60" cy="43" r="43" fill="#F4F4F4"/>
<path d="M41.4534 31.0433C40.6067 31.0433 39.9141 31.736 39.9141 32.5826C39.9141 33.4292 40.6067 34.1219 41.4534 34.1219H44.8691L48.9097 50.2846C49.2515 51.6545 50.4798 52.5935 51.8914 52.5935H71.0849C72.4734 52.5935 73.6525 51.673 74.0189 50.3323L78.0118 35.6612H74.7885L71.0849 49.5149H51.8914L47.8507 33.3522C47.6842 32.6893 47.3 32.1014 46.7597 31.6827C46.2194 31.2641 45.5541 31.0389 44.8706 31.0433H41.4534Z" fill="#00ABC5"/>
<path d="M69.1606 54.1326C66.6284 54.1326 64.5427 56.2183 64.5427 58.7505C64.5427 61.2826 66.6284 63.3684 69.1606 63.3684C71.6928 63.3684 73.7785 61.2826 73.7785 58.7505C73.7785 56.2183 71.6928 54.1326 69.1606 54.1326ZM55.3069 54.1326C52.7747 54.1326 50.689 56.2183 50.689 58.7505C50.689 61.2826 52.7747 63.3684 55.3069 63.3684C57.839 63.3684 59.9248 61.2826 59.9248 58.7505C59.9248 56.2183 57.839 54.1326 55.3069 54.1326ZM55.3069 57.2112C56.1735 57.2112 56.8462 57.8854 56.8462 58.7505C56.8462 59.6171 56.172 60.2898 55.3069 60.2898C54.4402 60.2898 53.7676 59.6156 53.7676 58.7505C53.7676 57.8838 54.4418 57.2112 55.3069 57.2112ZM69.1606 57.2112C70.0272 57.2112 70.6999 57.8854 70.6999 58.7505C70.6999 59.6171 70.0257 60.2898 69.1606 60.2898C68.294 60.2898 67.6213 59.6156 67.6213 58.7505C67.6213 57.8838 68.2955 57.2112 69.1606 57.2112Z" fill="#00ABC5"/>
<line x1="67.6211" y1="34.2453" x2="73.9034" y2="27.963" stroke="#00ABC5" stroke-width="2" stroke-linecap="round"/>
<line x1="50.5636" y1="27.9641" x2="56.8459" y2="34.2464" stroke="#00ABC5" stroke-width="2" stroke-linecap="round"/>
<line x1="62.0029" y1="33.1223" x2="62.0029" y2="22.8079" stroke="#00ABC5" stroke-width="2" stroke-linecap="round"/>
</svg>
