<svg width="13" height="11" viewBox="0 0 13 11" fill="none" xmlns="http://www.w3.org/2000/svg">
<path d="M0.590909 0.776111L1.34727 0L11.2273 10.2178L10.4768 11L8.65682 9.11778C7.97727 9.35 7.25636 9.47222 6.5 9.47222C3.54545 9.47222 1.02227 7.57167 0 4.88889C0.407727 3.81333 1.05773 2.86611 1.885 2.11444L0.590909 0.776111ZM6.5 3.05556C6.97016 3.05556 7.42106 3.24871 7.75351 3.59253C8.08596 3.93634 8.27273 4.40266 8.27273 4.88889C8.27303 5.09701 8.23905 5.30367 8.17227 5.5L5.90909 3.15944C6.09893 3.09038 6.29876 3.05525 6.5 3.05556ZM6.5 0.305556C9.45455 0.305556 11.9777 2.20611 13 4.88889C12.5177 6.15585 11.6982 7.25555 10.6364 8.06056L9.79727 7.18667C10.6144 6.60207 11.2735 5.81109 11.7118 4.88889C11.2341 3.88052 10.4924 3.03097 9.57111 2.43681C8.64979 1.84265 7.58577 1.5277 6.5 1.52778C5.85591 1.52778 5.22364 1.63778 4.63273 1.83333L3.72273 0.898333C4.57364 0.519444 5.51318 0.305556 6.5 0.305556ZM1.28818 4.88889C1.7659 5.89726 2.50756 6.74681 3.42889 7.34097C4.35021 7.93513 5.41423 8.25007 6.5 8.25C6.90773 8.25 7.30955 8.20722 7.68182 8.12167L6.33455 6.72222C5.92337 6.67664 5.53967 6.48687 5.24726 6.18446C4.95485 5.88205 4.77135 5.48523 4.72727 5.06L2.71818 2.97611C2.13318 3.49556 1.64273 4.14333 1.28818 4.88889Z" fill="white"/>
</svg>
