<svg width="12" height="13" viewBox="0 0 12 13" fill="none" xmlns="http://www.w3.org/2000/svg">
<path d="M6 5.5C5 5.5 5 5.185 5 5C5 4.815 5.35 4.5 6 4.5C6.65 4.5 6.695 4.82 6.7 5H7.7C7.69324 4.65938 7.57073 4.3312 7.35263 4.06948C7.13452 3.80775 6.83382 3.62807 6.5 3.56V3H5.5V3.545C4.5 3.71 4 4.355 4 5C4 5.56 4.26 6.5 6 6.5C7 6.5 7 6.84 7 7C7 7.16 6.69 7.5 6 7.5C5.08 7.5 5 7.07 5 7H4C4 7.46 4.33 8.275 5.5 8.46V9H6.5V8.46C7.5 8.29 8 7.645 8 7C8 6.44 7.74 5.5 6 5.5Z" fill="white"/>
<path d="M2.49025 3.80728L0.23412 4.35506C0.162177 4.37222 0.0916748 4.31787 0.0916748 4.24493L0.080163 1.93511C0.080163 1.83928 0.190955 1.78493 0.265776 1.845L2.53342 3.60562C2.55056 3.6188 2.56361 3.63652 2.57106 3.65674C2.57852 3.67696 2.58009 3.69886 2.57558 3.71993C2.57107 3.741 2.56067 3.76037 2.54557 3.77582C2.53048 3.79127 2.5113 3.80218 2.49025 3.80728ZM0.0772858 8.11371L0.893118 7.83481C0.921563 7.82512 0.952695 7.82688 0.979853 7.83971C1.00701 7.85254 1.02804 7.87542 1.03844 7.90347C1.06578 7.97641 1.09456 8.04792 1.12477 8.11943C1.38089 8.72156 1.7478 9.26362 2.21687 9.72844C2.68073 10.191 3.23046 10.5596 3.83559 10.814C4.46246 11.0774 5.1363 11.2127 5.8169 11.2116C6.50467 11.2116 7.17087 11.0786 7.79821 10.814C8.40334 10.5596 8.95307 10.191 9.41693 9.72844C9.88456 9.26362 10.2515 8.72156 10.509 8.11943C10.7726 7.49597 10.9076 6.82627 10.9061 6.15C10.9061 5.46635 10.7723 4.80272 10.5061 4.17914C10.25 3.57701 9.88312 3.03496 9.41405 2.57013C8.95019 2.10762 8.40046 1.73896 7.79533 1.48458C7.17087 1.21999 6.50323 1.08698 5.81546 1.08698C5.12768 1.08698 4.46149 1.21999 3.83415 1.48458C3.22902 1.73896 2.67929 2.10762 2.21543 2.57013C2.06867 2.71744 1.93054 2.87048 1.80392 3.03209L0.94348 2.36275C2.07586 0.923932 3.83847 -0.00142858 5.81834 1.65555e-06C9.26585 0.00143189 12.0342 2.78466 11.9997 6.21293C11.9651 9.58113 9.20973 12.3 5.81546 12.3C3.14637 12.3 0.872975 10.618 0.00678158 8.26245C-0.014802 8.20238 0.0168543 8.13516 0.0772858 8.11371Z" fill="white"/>
</svg>
