<svg width="16" height="16" viewBox="0 0 16 16" fill="none" xmlns="http://www.w3.org/2000/svg">
<path d="M11.0472 12.2579C9.67117 13.326 7.93979 13.8296 6.20552 13.6662C4.47126 13.5027 2.86447 12.6844 1.71222 11.3779C0.559978 10.0714 -0.051109 8.37486 0.00335078 6.63365C0.0578106 4.89244 0.773724 3.23742 2.00536 2.00549C3.23722 0.773773 4.89213 0.0578142 6.63323 0.003351C8.37433 -0.0511123 10.0707 0.560014 11.3772 1.71233C12.6836 2.86465 13.5018 4.47154 13.6653 6.20592C13.8288 7.94029 13.3252 9.67179 12.2571 11.0479L15.7268 14.5179C15.8395 14.6225 15.9219 14.7556 15.9653 14.9032C16.0086 15.0507 16.0114 15.2072 15.9734 15.3562C15.9353 15.5052 15.8577 15.6411 15.7488 15.7497C15.64 15.8583 15.5038 15.9355 15.3547 15.9732C15.2059 16.0114 15.0496 16.0087 14.9022 15.9655C14.7548 15.9223 14.6217 15.8402 14.517 15.7278L11.0472 12.2579ZM11.9832 6.84746C11.9933 6.16671 11.868 5.49074 11.6145 4.85887C11.361 4.227 10.9845 3.65184 10.5067 3.16685C10.0289 2.68186 9.45946 2.29672 8.83148 2.03384C8.2035 1.77096 7.52951 1.63558 6.84873 1.63558C6.16796 1.63558 5.49397 1.77096 4.86599 2.03384C4.23801 2.29672 3.66856 2.68186 3.19078 3.16685C2.713 3.65184 2.33642 4.227 2.08295 4.85887C1.82947 5.49074 1.70417 6.16671 1.71432 6.84746C1.73442 8.19602 2.28421 9.48254 3.24492 10.4291C4.20562 11.3756 5.50011 11.9062 6.84873 11.9062C8.19736 11.9062 9.49185 11.3756 10.4526 10.4291C11.4133 9.48254 11.963 8.19602 11.9832 6.84746Z" fill="#00ABC5"/>
</svg>
