<svg xmlns="http://www.w3.org/2000/svg" xmlns:xlink="http://www.w3.org/1999/xlink" width="48" height="48" viewBox="0 0 48 48">
	<defs>
		<style>
			.a,.c{fill:#111;}.a{stroke:#707070;}.b{clip-path:url(#a);}
		</style>
		<clipPath id="a">
			<rect class="a" width="48" height="48" />
		</clipPath>
	</defs>
	<g class="b">
		<path class="c" d="M85.824,81.742a7.511,7.511,0,1,0,7.511,7.511A7.516,7.516,0,0,0,85.824,81.742Zm3.8,9.065a.878.878,0,0,1-.647.259l-3.583.043a.956.956,0,0,1-.863-.993l-.043-3.5a1.092,1.092,0,0,1,.259-.647.878.878,0,0,1,.647-.259.839.839,0,0,1,.906.906v2.633h2.633a.839.839,0,0,1,.906.906A.908.908,0,0,1,89.622,90.807Z" transform="translate(-45.335 -48.763)" />
		<path class="c" d="M17.806-2.765a24,24,0,0,0,0,48,23.63,23.63,0,0,0,8.763-1.683,9.628,9.628,0,0,1,3.41-14.5c-1.6-1.122-3.108-1.986-4.317-2.676h-.043c-.345-.173-.647-.345-.906-.475H22.165c-.043-1.036-.043-1.9-.043-2.978.647-.345,1.813-2.5,2.072-4.4.561,0,1.338-.561,1.511-2.5a1.847,1.847,0,0,0-.734-1.9c.906-2.59,2.59-10.446-3.151-11.137-.647-1.079-2.158-1.64-4.144-1.64-7.986.173-8.892,6.043-7.209,12.777a2.119,2.119,0,0,0-.734,1.9c.259,1.986,1.079,2.5,1.511,2.5.173,1.9,1.424,4.058,2.072,4.4,0,1.079.043,1.942,0,2.978H10.64a55.209,55.209,0,0,0-6.863,4.317,7.005,7.005,0,0,0-2.763,5.18,22.633,22.633,0,0,1-5.05-14.158,21.842,21.842,0,0,1,43.683,0,21.42,21.42,0,0,1-1.381,7.64A8.851,8.851,0,0,1,40.122,30a23.8,23.8,0,0,0,1.683-8.763A24,24,0,0,0,17.806-2.765Z" transform="translate(6.194 2.765)" />
	</g>
</svg>
