<svg xmlns="http://www.w3.org/2000/svg" xmlns:xlink="http://www.w3.org/1999/xlink" width="48" height="48" viewBox="0 0 48 48"><defs><style>.a,.c{fill:#111;}.a{stroke:#707070;}.b{clip-path:url(#a);}</style><clipPath id="a"><rect class="a" width="48" height="48"/></clipPath></defs><g class="b"><g transform="translate(0 0)"><path class="c" d="M28.662,39.545a9.656,9.656,0,0,1,5.4-8.676c-1.6-1.122-3.108-1.986-4.317-2.676H29.7c-1.079-.6-1.856-.993-2.2-1.165a.291.291,0,0,1-.173-.259V23.962a8.837,8.837,0,0,0,.82-2.633c.345.259.993.129,1.683-2.331.561-1.986.216-2.633-.259-2.806,1.6-7.554-2.029-7.813-2.029-7.813a5.046,5.046,0,0,0-1.986-1.856A6.539,6.539,0,0,0,21.5,5.66a5.032,5.032,0,0,0-1.64.3,6.235,6.235,0,0,0-1.77.906,9.913,9.913,0,0,0-1.813,1.511,7.381,7.381,0,0,0-1.986,3.453,6.681,6.681,0,0,0,.173,3.885c-.647-.086-1.424.3-.691,2.849.518,1.856.993,2.374,1.381,2.417a9.194,9.194,0,0,0,1.122,3.324v2.46a.355.355,0,0,1-.173.259,55.532,55.532,0,0,0-8.158,5.007,7.005,7.005,0,0,0-2.763,5.18A22.21,22.21,0,0,1,.043,23.056a21.842,21.842,0,0,1,43.683,0,21.42,21.42,0,0,1-1.381,7.64A8.851,8.851,0,0,1,44.2,31.818,23.984,23.984,0,1,0,21.885,47.056a23.63,23.63,0,0,0,8.763-1.683A9.682,9.682,0,0,1,28.662,39.545Z" transform="translate(2.115 0.944)"/><path class="c" d="M34.252,27.912a7.511,7.511,0,1,0,7.511,7.511A7.516,7.516,0,0,0,34.252,27.912Zm-1.424,9.237v-.6A1.785,1.785,0,0,1,33,35.638a2.577,2.577,0,0,1,.691-.691c.216-.173.475-.345.863-.6a3.436,3.436,0,0,0,.777-.6.909.909,0,0,0,.216-.561.784.784,0,0,0-.259-.6,1.143,1.143,0,0,0-.734-.216.757.757,0,0,0-.647.259,1.048,1.048,0,0,0-.216.777v.259H31.748V31.581a4.725,4.725,0,0,1,2.849-.82,3.713,3.713,0,0,1,2.288.6,2.261,2.261,0,0,1,.777,1.856,2.66,2.66,0,0,1-.173,1.122,1.717,1.717,0,0,1-.518.691,8.58,8.58,0,0,1-.95.647,4.548,4.548,0,0,1-.475.3,1.517,1.517,0,0,0-.388.3.774.774,0,0,0-.216.3,1.26,1.26,0,0,0-.086.388v.086H32.827Zm-.043,1.9a1.011,1.011,0,0,1,.3-.734.947.947,0,0,1,.734-.3,1.025,1.025,0,0,1,.518.13,1.314,1.314,0,0,1,.345.345,1.1,1.1,0,0,1,0,1.036,1.114,1.114,0,0,1-.388.388,1.149,1.149,0,0,1-.518.129,1.011,1.011,0,0,1-.734-.3A1.113,1.113,0,0,1,32.784,39.049Z" transform="translate(6.237 5.067)"/></g></g></svg>