<svg xmlns="http://www.w3.org/2000/svg" xmlns:xlink="http://www.w3.org/1999/xlink" width="32" height="32" viewBox="0 0 32 32"><defs><style>.a,.c{fill:#111;}.a{stroke:#707070;}.b{clip-path:url(#a);}</style><clipPath id="a"><rect class="a" width="32" height="32" transform="translate(9274 1490)"/></clipPath></defs><g class="b" transform="translate(-9274 -1490)"><g transform="translate(9277.005 1490)"><path class="c" d="M76.271,52.534a.749.749,0,0,0-.749.749V67.447a.749.749,0,1,0,1.5,0V53.283A.749.749,0,0,0,76.271,52.534Zm0,0" transform="translate(-58.854 -40.94)"/><path class="c" d="M36.2,52.534a.749.749,0,0,0-.749.749V67.447a.749.749,0,1,0,1.5,0V53.283A.749.749,0,0,0,36.2,52.534Zm0,0" transform="translate(-27.627 -40.94)"/><path class="c" d="M2.127,9.526V27.99a4.135,4.135,0,0,0,1.1,2.852A3.691,3.691,0,0,0,5.9,32H20.083a3.69,3.69,0,0,0,2.678-1.158,4.135,4.135,0,0,0,1.1-2.852V9.526a2.863,2.863,0,0,0-.734-5.63H19.289V2.96A2.944,2.944,0,0,0,16.321,0H9.667A2.944,2.944,0,0,0,6.7,2.96V3.9H2.862a2.863,2.863,0,0,0-.734,5.63ZM20.083,30.5H5.9A2.373,2.373,0,0,1,3.626,27.99V9.592H22.362v18.4A2.373,2.373,0,0,1,20.083,30.5ZM8.2,2.96A1.444,1.444,0,0,1,9.667,1.5h6.655A1.444,1.444,0,0,1,17.79,2.96V3.9H8.2ZM2.862,5.4H23.126a1.349,1.349,0,1,1,0,2.7H2.862a1.349,1.349,0,1,1,0-2.7Zm0,0" transform="translate(0.001 0.001)"/><path class="c" d="M56.236,52.534a.749.749,0,0,0-.749.749V67.447a.749.749,0,1,0,1.5,0V53.283A.749.749,0,0,0,56.236,52.534Zm0,0" transform="translate(-43.241 -40.94)"/></g></g></svg>