<svg width="12" height="12" viewBox="0 0 12 12" fill="none" xmlns="http://www.w3.org/2000/svg">
<path d="M6 0C4.4087 0 2.88258 0.632157 1.75736 1.7574C0.632141 2.88265 0 4.40882 0 6.00016C4.10215e-05 6.78811 0.155276 7.56834 0.456842 8.29629C0.758409 9.02425 1.2004 9.68568 1.75758 10.2428C2.31476 10.8 2.97622 11.2419 3.70419 11.5434C4.43216 11.8449 5.21238 12 6.00031 12C6.78824 12 7.56845 11.8447 8.29639 11.5431C9.02433 11.2416 9.68574 10.7996 10.2429 10.2424C10.8 9.68518 11.2419 9.0237 11.5434 8.29572C11.8449 7.56773 12 6.78748 12 5.99953C12 2.68632 9.31313 0 6 0ZM6 10.7497C5.37622 10.7497 4.75855 10.6268 4.18225 10.3881C3.60596 10.1494 3.08232 9.79947 2.64124 9.35838C2.20016 8.91729 1.85028 8.39364 1.61157 7.81733C1.37286 7.24101 1.25 6.62333 1.25 5.99953C1.25 5.37574 1.37286 4.75805 1.61157 4.18174C1.85028 3.60543 2.20016 3.08178 2.64124 2.64069C3.08232 2.1996 3.60596 1.84971 4.18225 1.61099C4.75855 1.37227 5.37622 1.24941 6 1.24941V6.00016L10.245 3.8776C10.5769 4.53594 10.7498 5.2629 10.75 6.00016C10.7498 7.25986 10.2493 8.46791 9.35854 9.3586C8.46776 10.2493 7.25967 10.7497 6 10.7497Z" fill="white"/>
</svg>
